<svg viewBox="0 0 284 248" xmlns="http://www.w3.org/2000/svg" xmlns:xlink="http://www.w3.org/1999/xlink"><svg height="32" width="32" viewBox="-4 -4 32 32" id="add_24" x="216" y="180" xmlns="http://www.w3.org/2000/svg"><g fill="none" fill-rule="evenodd"><path d="M0 0h24v24H0z" opacity=".1"/><path d="M12.9 11.1h7.2a.9.9 0 110 1.8h-7.2v7.2a.9.9 0 11-1.8 0v-7.2H3.9a.9.9 0 110-1.8h7.2V3.9a.9.9 0 011.8 0z" fill="#3f8ae0" fill-rule="nonzero"/></g></svg><svg width="36" height="36" viewBox="-4 -4 36 36" id="add_outline_28" x="104" y="40" xmlns="http://www.w3.org/2000/svg"><g fill="none" fill-rule="evenodd"><path d="M0 0h28v28H0z"/><path d="M14 4a1 1 0 011 1v8h8a1 1 0 010 2h-8v8a1 1 0 01-2 0v-8H5a1 1 0 010-2h8V5a1 1 0 011-1z" fill="#3F8AE0" fill-rule="nonzero"/></g></svg><svg width="36" height="36" viewBox="-4 -4 36 36" id="article_outline_28" y="104" xmlns="http://www.w3.org/2000/svg"><g fill="none" fill-rule="evenodd"><path d="M0 0h28v28H0z"/><path d="M17.59 3c2.183 0 3.233.203 4.324.786a5.543 5.543 0 012.3 2.3c.583 1.091.786 2.14.786 4.324v7.18c0 2.183-.203 3.233-.786 4.324a5.543 5.543 0 01-2.3 2.3c-1.091.583-2.14.786-4.324.786h-7.18c-2.183 0-3.233-.203-4.324-.786a5.543 5.543 0 01-2.3-2.3C3.203 20.823 3 19.774 3 17.59v-7.18c0-2.183.203-3.233.786-4.324a5.543 5.543 0 012.3-2.3C7.177 3.203 8.226 3 10.41 3h7.18zm0 2h-7.18c-1.881 0-2.62.142-3.38.55a3.533 3.533 0 00-1.48 1.48C5.142 7.79 5 8.529 5 10.41v7.18c0 1.881.142 2.62.55 3.38a3.533 3.533 0 001.48 1.48c.76.408 1.499.55 3.38.55h7.18c1.881 0 2.62-.142 3.38-.55a3.543 3.543 0 001.48-1.48c.408-.76.55-1.499.55-3.38v-7.18c0-1.881-.142-2.62-.55-3.38a3.543 3.543 0 00-1.48-1.48c-.76-.408-1.499-.55-3.38-.55zM13 17.5a1 1 0 010 2H9a1 1 0 010-2zM9 13h10a1 1 0 01.117 1.993L19 15H9a1 1 0 01-.117-1.993L9 13h10zm10-4.5a1 1 0 01.117 1.993L19 10.5H9a1 1 0 01-.117-1.993L9 8.5h10z" fill="#3F8AE0" fill-rule="nonzero"/></g></svg><svg width="36" height="36" viewBox="-4 -4 36 36" id="attach_outline_28" x="36" y="104" xmlns="http://www.w3.org/2000/svg"><g fill="none" fill-rule="evenodd"><path d="M0 0h28v28H0z"/><path d="M14 2c6.627 0 12 5.373 12 12s-5.373 12-12 12S2 20.627 2 14 7.373 2 14 2zm0 2C8.477 4 4 8.477 4 14s4.477 10 10 10 10-4.477 10-10S19.523 4 14 4zm0 4a1 1 0 011 1v4h4a1 1 0 010 2h-4v4a1 1 0 01-2 0v-4H9a1 1 0 010-2h4V9a1 1 0 011-1z" fill="#3F8AE0"/></g></svg><svg width="36" height="36" viewBox="-4 -4 36 36" id="back_outline_28" x="72" y="104" xmlns="http://www.w3.org/2000/svg"><g fill="none" fill-rule="evenodd"><path d="M28 0H0v28h28z"/><path d="M12.293 6.293a1 1 0 011.414 1.414L8.414 13H22a1 1 0 01.993.883L23 14a1 1 0 01-1 1H8.414l5.293 5.293a1 1 0 01.083 1.32l-.083.094a1 1 0 01-1.414 0l-7-7-.073-.082A1.005 1.005 0 015 14l.004.09A1.006 1.006 0 015 14.02V14a1.02 1.02 0 01.125-.484.878.878 0 01.071-.111.999.999 0 01.097-.112l-.08.09a.97.97 0 01.08-.09z" fill="#3F8AE0" fill-rule="nonzero"/></g></svg><svg width="36" height="36" viewBox="-4 -4 36 36" id="back_outline_white_28" x="108" y="104" xmlns="http://www.w3.org/2000/svg"><g fill="none" fill-rule="evenodd"><path d="M28 0H0v28h28z"/><path d="M12.293 6.293a1 1 0 011.414 1.414L8.414 13H22a1 1 0 01.993.883L23 14a1 1 0 01-1 1H8.414l5.293 5.293a1 1 0 01.083 1.32l-.083.094a1 1 0 01-1.414 0l-7-7-.073-.082A1.005 1.005 0 015 14l.004.09A1.006 1.006 0 015 14.02V14a1.02 1.02 0 01.125-.484.878.878 0 01.071-.111.999.999 0 01.097-.112l-.08.09a.97.97 0 01.08-.09z" fill="#FFF" fill-rule="nonzero"/></g></svg><svg width="36" height="36" viewBox="-4 -4 36 36" id="camera_outline_28" x="144" xmlns="http://www.w3.org/2000/svg"><g fill="none" fill-rule="evenodd"><path d="M0 0h28v28H0z"/><path d="M15.697 2c.52 0 .993.065 1.43.202.458.143.87.364 1.244.665.356.288.673.645.961 1.078l.266.398.134.189c.097.13.162.197.235.258a.767.767 0 00.28.15c.129.038.259.056.578.06h.218c1.192.052 1.871.216 2.587.599A4.271 4.271 0 0125.4 7.37c.445.831.599 1.631.599 3.245v5.975c0 2.183-.203 3.233-.786 4.324a5.543 5.543 0 01-2.3 2.3c-1.091.583-2.14.786-4.324.786H9.41c-2.183 0-3.233-.203-4.324-.786a5.543 5.543 0 01-2.3-2.3c-.553-1.034-.764-2.03-.784-3.988v-6.604c.018-1.421.18-2.172.597-2.952A4.271 4.271 0 014.37 5.6c.691-.37 1.347-.534 2.451-.583l.089-.012L7 5h.175c.32-.004.45-.022.577-.06a.767.767 0 00.28-.15c.104-.085.19-.184.37-.447l.266-.398c.288-.433.605-.79.961-1.078a3.74 3.74 0 011.244-.665c.437-.137.91-.202 1.43-.202h3.394zm0 2h-3.394c-.327 0-.6.037-.832.11a1.74 1.74 0 00-.586.313c-.19.154-.372.36-.553.632l-.304.452c-.27.392-.465.613-.72.824a2.766 2.766 0 01-.98.524c-.34.102-.65.14-1.187.145l-.054.006-.27.012c-.752.039-1.109.133-1.504.345-.412.22-.73.538-.95.95-.269.502-.363.99-.363 2.302v5.975c0 1.881.142 2.62.55 3.38a3.533 3.533 0 001.48 1.48c.68.365 1.343.517 2.822.545L9.41 22h9.18l.558-.005c1.479-.028 2.141-.18 2.823-.545a3.543 3.543 0 001.48-1.48c.364-.68.516-1.343.544-2.822L24 16.59v-5.975l-.005-.455c-.021-.98-.123-1.407-.358-1.847a2.271 2.271 0 00-.95-.95c-.431-.23-.82-.325-1.687-.363l-.242-.002c-.476-.008-.769-.047-1.086-.143a2.766 2.766 0 01-.98-.524c-.255-.21-.45-.432-.72-.824l-.304-.452a2.777 2.777 0 00-.553-.632 1.74 1.74 0 00-.586-.313 2.777 2.777 0 00-.832-.11zM14 8.5A5.25 5.25 0 1114 19a5.25 5.25 0 010-10.5zm0 2a3.25 3.25 0 100 6.5 3.25 3.25 0 000-6.5z" fill="#3F8AE0" fill-rule="nonzero"/></g></svg><svg width="36" height="36" viewBox="-4 -4 36 36" id="cancel_outline_28" x="144" y="36" xmlns="http://www.w3.org/2000/svg"><g fill="none" fill-rule="evenodd"><path d="M0 0h28v28H0z"/><path d="M6.293 6.293a1 1 0 011.414 0L14 12.585l6.293-6.292a1 1 0 011.32-.083l.094.083a1 1 0 010 1.414L15.415 14l6.292 6.293a1 1 0 01.083 1.32l-.083.094a1 1 0 01-1.414 0L14 15.415l-6.293 6.292a1 1 0 01-1.32.083l-.094-.083a1 1 0 010-1.414L12.585 14 6.293 7.707a1 1 0 01-.083-1.32z" fill="#3F8AE0" fill-rule="nonzero"/></g></svg><svg height="52" width="52" viewBox="-4 -4 52 52" id="checkbox_off_44" xmlns="http://www.w3.org/2000/svg"><g fill="none" fill-rule="evenodd"><path d="M0 0h44v44H0z" opacity=".1"/><path d="M10 10h24v24H10z" opacity=".1"/><path d="M26.872 12c1.783 0 2.43.186 3.082.534.652.349 1.163.86 1.512 1.512.348.652.534 1.299.534 3.082v9.744c0 1.783-.186 2.43-.534 3.082a3.635 3.635 0 01-1.512 1.512c-.652.348-1.299.534-3.082.534h-9.744c-1.783 0-2.43-.186-3.082-.534a3.635 3.635 0 01-1.512-1.512c-.348-.652-.534-1.299-.534-3.082v-9.744c0-1.783.186-2.43.534-3.082a3.635 3.635 0 011.512-1.512c.652-.348 1.299-.534 3.082-.534zm.564 2H16.564c-.892 0-1.215.093-1.54.267-.327.174-.583.43-.757.756s-.267.65-.267 1.54v10.873c0 .892.093 1.215.267 1.54.174.327.43.583.756.757s.65.267 1.54.267h10.873c.892 0 1.215-.093 1.54-.267.327-.174.583-.43.757-.756s.267-.65.267-1.54V16.563c0-.892-.093-1.215-.267-1.54a1.817 1.817 0 00-.756-.757c-.326-.174-.65-.267-1.54-.267z" fill="#c4c8cc" fill-rule="nonzero"/></g></svg><svg height="52" width="52" viewBox="-4 -4 52 52" id="checkbox_on_44" x="52" xmlns="http://www.w3.org/2000/svg"><g fill="none" fill-rule="evenodd"><path d="M0 0h44v44H0z" opacity=".1"/><path d="M10 10h24v24H10z" opacity=".1"/><path d="M26.872 12c1.783 0 2.43.186 3.082.534.652.349 1.163.86 1.512 1.512.348.652.534 1.299.534 3.082v9.744c0 1.783-.186 2.43-.534 3.082a3.635 3.635 0 01-1.512 1.512c-.652.348-1.299.534-3.082.534h-9.744c-1.783 0-2.43-.186-3.082-.534a3.635 3.635 0 01-1.512-1.512c-.348-.652-.534-1.299-.534-3.082v-9.744c0-1.783.186-2.43.534-3.082a3.635 3.635 0 011.512-1.512c.652-.348 1.299-.534 3.082-.534zm1.421 5.668a1 1 0 00-1.387 0L20 24.307l-2.908-2.794a1 1 0 00-1.385-.001l-.007.007a.93.93 0 00-.002 1.342l3.609 3.471a1 1 0 001.386 0l7.606-7.31a.936.936 0 00.001-1.348z" fill="#3f8ae0" fill-rule="nonzero"/></g></svg><svg viewBox="-4 -4 20 24" width="20" height="24" id="chevron_16" x="252" y="126" xmlns="http://www.w3.org/2000/svg"><path fill="none" d="M0 0h12v16H0z"/><path d="M7.23 8L3.86 4.64a.91.91 0 011.28-1.28l4 4a.91.91 0 010 1.28l-4 4a.91.91 0 01-1.28-1.28z" fill="#aeb7c2"/></svg><svg viewBox="-4 -4 24 32" width="24" height="32" id="chevron_24" x="180" y="144" xmlns="http://www.w3.org/2000/svg"><path d="M0 0h16v24H0z" fill="none"/><path d="M4.71 7.71a1 1 0 010-1.42l.08-.08a1 1 0 011.42 0l5.08 5.08a1 1 0 010 1.42l-5.08 5.08a1 1 0 01-1.42 0l-.08-.08a1 1 0 010-1.42L9 12z" fill="#aaaeb3"/></svg><svg height="36" width="36" viewBox="-4 -4 36 36" id="dismiss_gold_28" x="144" y="72" xmlns="http://www.w3.org/2000/svg"><g fill="none" fill-rule="evenodd"><path d="M0 0h28v28H0z"/><circle cx="14" cy="14" fill="#9e8d6b" opacity=".12" r="12"/><path d="M6 6h16v16H6z"/><path d="M18.736 9.264a.9.9 0 010 1.272L15.273 14l3.463 3.464a.9.9 0 01.08 1.18l-.08.092a.9.9 0 01-1.272 0L14 15.273l-3.464 3.463a.9.9 0 11-1.272-1.272L12.727 14l-3.463-3.464a.9.9 0 01-.08-1.18l.08-.092a.9.9 0 011.272 0L14 12.727l3.464-3.463a.9.9 0 011.272 0z" fill="#9e8d6b" fill-rule="nonzero"/></g></svg><svg width="36" height="36" viewBox="-4 -4 36 36" id="document_outline_28" y="140" xmlns="http://www.w3.org/2000/svg"><g fill="none" fill-rule="evenodd"><path d="M0 0h28v28H0z"/><path d="M15.205 2.122c.406.093.772.245 1.124.466.356.222.63.456 1.192 1.02l4.872 4.87c.563.564.797.837 1.02 1.193a3.6 3.6 0 01.465 1.124c.094.409.122.767.122 1.564v6.872c0 1.98-.185 2.94-.72 3.939a5.089 5.089 0 01-2.11 2.11c-.999.535-1.959.72-3.939.72H10.77c-1.98 0-2.94-.185-3.939-.72a5.089 5.089 0 01-2.11-2.11c-.537-1-.721-1.96-.721-3.94V8.066c0-1.285.232-2.324.72-3.236a5.089 5.089 0 012.11-2.11C7.742 2.231 8.781 2 10.066 2h3.575c.797 0 1.155.028 1.564.122zm-1.379 1.879L10.066 4c-.972 0-1.688.16-2.292.483a3.09 3.09 0 00-1.291 1.29C6.16 6.379 6 7.095 6 8.067v11.165c0 1.678.125 2.327.483 2.995.299.56.732.992 1.29 1.291.67.358 1.318.483 2.996.483h6.462c1.678 0 2.327-.125 2.995-.483a3.09 3.09 0 001.291-1.29c.358-.67.483-1.318.483-2.996V12.36c0-.137 0-.256-.002-.36H16.5A2.5 2.5 0 0114 9.5l.001-5.498-.175-.001zm2.281 1.02L16 4.915V9.5a.5.5 0 00.41.492l.09.008 4.587.002-.108-.11-4.872-4.87z" fill="#3F8AE0" fill-rule="nonzero"/></g></svg><svg height="36" width="36" viewBox="-4 -4 36 36" id="done_outline_28" x="36" y="140" xmlns="http://www.w3.org/2000/svg"><g fill="none" fill-rule="evenodd"><path d="M0 0h28v28H0z"/><path d="M11 18.586l-5.293-5.293a1 1 0 10-1.414 1.414l6 6a1 1 0 001.414 0l12-12a1 1 0 10-1.414-1.414z" fill="#3f8ae0" fill-rule="nonzero"/></g></svg><svg height="20" width="24" viewBox="-4 -4 24 20" id="dropdown_16" x="252" y="150" xmlns="http://www.w3.org/2000/svg"><g fill="none" fill-rule="evenodd"><path d="M0 0h16v12H0z"/><path d="M4.454 3.691A.9.9 0 103.346 5.11l4.096 3.203a.9.9 0 001.109 0l4.1-3.203a.9.9 0 10-1.108-1.418L7.997 6.46 4.454 3.69z" fill="#3f8ae0" fill-rule="nonzero"/></g></svg><svg height="20" width="24" viewBox="-4 -4 24 20" id="dropdown_outline_16" x="252" y="170" xmlns="http://www.w3.org/2000/svg"><g fill="none" fill-rule="evenodd"><path d="M0 0h16v12H0z"/><path d="M8 6.778l3.773-3.107a.75.75 0 11.954 1.158l-4.25 3.5a.75.75 0 01-.954 0l-4.25-3.5a.75.75 0 01.954-1.158z" fill="#397ecc" fill-rule="nonzero"/></g></svg><svg height="36" width="36" viewBox="-4 -4 36 36" id="favorite_outline_28" x="72" y="140" xmlns="http://www.w3.org/2000/svg"><g fill="none" fill-rule="evenodd"><path d="M0 0h28v28H0z"/><path d="M14 19.178l5.69 3.476a.205.205 0 00.306-.223l-1.547-6.485 5.064-4.338a.205.205 0 00-.117-.36l-6.646-.533-2.56-6.156a.205.205 0 00-.38 0l-2.56 6.156-6.646.533a.205.205 0 00-.117.36l5.064 4.338-1.547 6.485a.205.205 0 00.306.223zm0 2.344L9.352 24.36a2.205 2.205 0 01-3.294-2.393l1.264-5.297-4.136-3.543a2.205 2.205 0 011.258-3.873l5.429-.435 2.091-5.028a2.205 2.205 0 014.072 0l2.091 5.028 5.429.435a2.205 2.205 0 011.258 3.873l-4.136 3.543 1.264 5.297a2.205 2.205 0 01-3.294 2.393z" fill="#3f8ae0" fill-rule="nonzero"/></g></svg><svg height="30" width="30" viewBox="-4 -4 30 30" id="feed_outline_28" x="252" y="96" xmlns="http://www.w3.org/2000/svg"><g fill="none" fill-rule="evenodd"><path d="M-3-3h28v28H-3z" opacity=".04"/><path d="M19.5 6v-.654c0-1.068-.073-1.449-.283-1.84a1.726 1.726 0 00-.723-.723c-.391-.21-.772-.283-1.84-.283H5.346c-1.068 0-1.449.073-1.84.283-.314.168-.555.409-.723.723-.21.391-.283.772-.283 1.84V6zm0 2h-17v8.654c0 1.068.073 1.449.283 1.84.168.314.409.555.723.723.391.21.772.283 1.84.283h11.308c1.068 0 1.449-.073 1.84-.283.314-.168.555-.409.723-.723.21-.391.283-.772.283-1.84zM5.346.5h11.308c1.37 0 2.063.134 2.783.519.663.355 1.19.881 1.544 1.544.385.72.519 1.413.519 2.783v11.308c0 1.37-.134 2.063-.519 2.783a3.726 3.726 0 01-1.544 1.544c-.72.385-1.413.519-2.783.519H5.346c-1.37 0-2.063-.134-2.783-.519a3.726 3.726 0 01-1.544-1.544C.634 18.717.5 18.024.5 16.654V5.346c0-1.37.134-2.063.519-2.783A3.726 3.726 0 012.563 1.02C3.283.634 3.976.5 5.346.5z" fill="#3f8ae0" fill-rule="nonzero"/></g></svg><svg width="36" height="36" viewBox="-4 -4 36 36" id="filter_outline_28" x="108" y="140" xmlns="http://www.w3.org/2000/svg"><g fill="none" fill-rule="evenodd"><path d="M0 0h28v28H0z"/><path d="M18.5 15a3.502 3.502 0 013.355 2.5H24a1 1 0 010 2h-2.145a3.502 3.502 0 01-6.71 0H4a1 1 0 010-2h11.145A3.502 3.502 0 0118.5 15zm0 1.75a1.75 1.75 0 100 3.5 1.75 1.75 0 000-3.5zM10.5 6a3.502 3.502 0 013.355 2.5H24a1 1 0 010 2H13.855a3.502 3.502 0 01-6.71 0H4a1 1 0 010-2h3.145A3.502 3.502 0 0110.5 6zm0 1.75a1.75 1.75 0 100 3.5 1.75 1.75 0 000-3.5z" fill="#3F8AE0" fill-rule="nonzero"/></g></svg><svg width="36" height="36" viewBox="-4 -4 36 36" id="game_outline_28" x="144" y="140" xmlns="http://www.w3.org/2000/svg"><g fill="none" fill-rule="evenodd"><path opacity=".4" d="M0 0h28v28H0z"/><path d="M16.731 17.215H10.27c-1.542 0-4.124 5-5.655 5-2.056 0-2.57-1-2.57-4S2.558 7.104 8.213 7.104h10.574c5.655 0 6.169 8.11 6.169 11.11s-.514 4-2.57 4c-2.057 0-4.113-5-5.655-5z" stroke="#3F8AE0" stroke-width="2"/><path d="M8.566 9.815a.51.51 0 01.51.51v1.267h1.26a.51.51 0 01.51.511v.757a.51.51 0 01-.51.51h-1.26v1.268a.51.51 0 01-.51.51h-.748a.51.51 0 01-.51-.51V13.37h-1.26a.51.51 0 01-.51-.51v-.757a.51.51 0 01.51-.51l1.26-.001v-1.267a.51.51 0 01.51-.51h.748zm10.616 3.555a.51.51 0 01.51.51v.758a.51.51 0 01-.51.51h-.748a.51.51 0 01-.51-.51v-.758a.51.51 0 01.51-.51h.748zm-1.77-1.777a.51.51 0 01.511.51v.757a.51.51 0 01-.51.51h-.749a.51.51 0 01-.51-.51v-.757a.51.51 0 01.51-.51h.749zm3.54 0a.51.51 0 01.51.51v.757a.51.51 0 01-.51.51h-.75a.51.51 0 01-.51-.51v-.757a.51.51 0 01.51-.51h.75zm-1.77-1.778a.51.51 0 01.51.51v.757a.51.51 0 01-.51.51h-.748a.51.51 0 01-.51-.51v-.757a.51.51 0 01.51-.51h.748z" fill="#3F8AE0"/></g></svg><svg height="36" width="36" viewBox="-4 -4 36 36" id="help_outline_28" x="180" xmlns="http://www.w3.org/2000/svg"><g fill="none" fill-rule="evenodd"><path d="M0 0h28v28H0z"/><path d="M14 1.167c7.088 0 12.833 5.745 12.833 12.833S21.088 26.833 14 26.833 1.167 21.088 1.167 14 6.912 1.167 14 1.167zm0 2.1C8.072 3.267 3.267 8.072 3.267 14S8.072 24.733 14 24.733 24.733 19.928 24.733 14 19.928 3.267 14 3.267zm-.056 16.07c.612 0 1.108.496 1.108 1.107v.382c0 .611-.496 1.107-1.108 1.107h-.35a1.108 1.108 0 01-1.107-1.107v-.382c0-.611.496-1.107 1.107-1.107zm-.249-12.57c2.296 0 4.155 1.901 4.155 4.249a3.42 3.42 0 01-.966 2.39l-.935.977c-.556.577-.957 1.077-1.126 1.95-.015.08-.027.201-.034.362-.024.553-.48.99-1.034.99h-.01a1.04 1.04 0 01-1.04-1.04v-.002c0-.302.01-.5.028-.593a4.335 4.335 0 011.14-2.198l1.287-1.339c.369-.375.613-.913.613-1.497 0-1.169-.935-2.125-2.078-2.125a2.07 2.07 0 00-1.74.967 4.45 4.45 0 00-.277.552 1.04 1.04 0 01-1.29.561l-.033-.011a1 1 0 01-.62-1.273l.019-.048c.075-.187.147-.352.217-.494.713-1.47 2.056-2.378 3.724-2.378z" fill="#3f8ae0" fill-rule="nonzero"/></g></svg><svg height="36" width="36" viewBox="-4 -4 36 36" id="like_outline_28" x="180" y="36" xmlns="http://www.w3.org/2000/svg"><g fill="none" fill-rule="evenodd"><path d="M0 0h28v28H0z"/><path d="M19.526 3.617a7.19 7.19 0 017.19 7.19c0 3.989-1.595 5.986-8.302 11.202l-3.053 2.375c-.8.623-1.921.623-2.722 0l-3.053-2.375c-6.707-5.216-8.303-7.213-8.303-11.202a7.19 7.19 0 017.19-7.19c2.081 0 3.932.954 5.527 2.794 1.595-1.84 3.446-2.794 5.526-2.794zm-11.052 2.1a5.09 5.09 0 00-5.09 5.09c0 3.115 1.273 4.708 7.49 9.544l3.054 2.375a.117.117 0 00.144 0l3.053-2.375c6.218-4.836 7.492-6.43 7.492-9.544a5.09 5.09 0 00-5.09-5.09c-1.71 0-3.25.964-4.663 3.008L14 9.973l-.864-1.248c-1.413-2.044-2.952-3.008-4.662-3.008z" fill="#3f8ae0" fill-rule="nonzero"/></g></svg><svg width="36" height="36" viewBox="-4 -4 36 36" id="link_outline_28" x="180" y="72" xmlns="http://www.w3.org/2000/svg"><g fill="none" fill-rule="evenodd"><path d="M0 0h28v28H0z"/><path d="M20.708 6.292a1 1 0 011 1v10.5a1 1 0 11-2 0V9.705l-12 12.002a1 1 0 01-1.32.083l-.095-.083a1 1 0 010-1.414l12-12.001h-8.085a1 1 0 01-.993-.884l-.007-.116a1 1 0 011-1z" fill="#3F8AE0" fill-rule="nonzero"/></g></svg><svg width="40" height="40" viewBox="-4 -4 40 40" id="logo_32" x="104" xmlns="http://www.w3.org/2000/svg"><g fill="none" fill-rule="evenodd"><path d="M11.093 0h9.814C29.867 0 32 2.133 32 11.093v9.814C32 29.867 29.867 32 20.907 32h-9.814C2.133 32 0 29.867 0 20.907v-9.814C0 2.133 2.133 0 11.093 0z" fill="#3F8AE0"/><path d="M26.372 10.858c.149-.495 0-.858-.705-.858h-2.334c-.593 0-.866.314-1.015.66 0 0-1.186 2.892-2.867 4.77-.544.545-.791.718-1.088.718-.148 0-.363-.173-.363-.668v-4.622c0-.594-.172-.858-.667-.858h-3.666c-.371 0-.594.275-.594.536 0 .563.84.692.927 2.275v3.436c0 .753-.136.89-.433.89-.79 0-2.715-2.906-3.856-6.23-.224-.646-.448-.907-1.044-.907H6.333c-.666 0-.8.314-.8.66 0 .618.791 3.683 3.684 7.737 1.928 2.769 4.644 4.27 7.116 4.27 1.484 0 1.667-.334 1.667-.908v-2.092c0-.667.14-.8.61-.8.346 0 .94.173 2.324 1.508 1.582 1.582 1.843 2.292 2.733 2.292H26c.667 0 1-.334.808-.991-.21-.656-.966-1.607-1.968-2.735-.544-.643-1.36-1.335-1.607-1.68-.346-.446-.247-.644 0-1.04 0 0 2.843-4.004 3.14-5.363z" fill="#FFF"/></g></svg><svg height="32" width="32" viewBox="-4 -4 32 32" id="message_outline_24" x="144" y="108" xmlns="http://www.w3.org/2000/svg"><g fill="none" fill-rule="evenodd"><path d="M0 0h24v24H0z"/><path d="M7.713 18.202a.9.9 0 011-.259A9.363 9.363 0 0012 18.53c4.502 0 8.1-3.085 8.1-6.815S16.502 4.901 12 4.901s-8.1 3.084-8.1 6.814c0 1.283.423 2.515 1.214 3.586a.9.9 0 01.176.538c-.003.893-.376 2.179-1.114 3.915 1.654-.184 2.82-.71 3.537-1.551zm-4.324 3.413a1.272 1.272 0 01-1.203-1.807c.77-1.706 1.197-2.964 1.286-3.712-.891-1.312-1.372-2.815-1.372-4.382C2.1 6.924 6.56 3.1 12 3.1s9.9 3.823 9.9 8.614-4.46 8.615-9.9 8.615c-1.157 0-2.287-.173-3.353-.506-1.21 1.116-2.975 1.703-5.258 1.792z" fill="#3f8ae0" fill-rule="nonzero"/></g></svg><svg width="32" height="32" viewBox="-4 -4 32 32" id="money_transfer_outline_24" x="252" xmlns="http://www.w3.org/2000/svg"><g fill="none" fill-rule="evenodd"><path d="M0 0h24v24H0z"/><path d="M6.205 3.1h11.59c1.152 0 1.74.113 2.35.44a3.17 3.17 0 011.315 1.315c.301.564.421 1.107.438 2.094l.002.256V12a.9.9 0 01-1.793.113L20.1 12l-.001-3.1h-16.2l.001 5.895c0 .88.06 1.187.228 1.502.134.25.325.441.575.575.291.156.574.218 1.309.227l.193.001h12.622l-1.463-1.464a.9.9 0 01-.08-1.18l.08-.092a.9.9 0 011.18-.08l.092.08 3 3a.9.9 0 01.08 1.18l-.08.092-3 3a.9.9 0 01-1.353-1.18l.08-.092 1.464-1.464H6.205c-1.063 0-1.646-.097-2.21-.369l-.14-.071a3.171 3.171 0 01-1.315-1.315c-.301-.564-.421-1.107-.438-2.094l-.002-.256v-7.59c0-1.152.113-1.74.44-2.35A3.171 3.171 0 013.855 3.54c.564-.301 1.107-.421 2.094-.438l.256-.002h11.59zm11.59 1.8H6.205c-.88 0-1.187.06-1.502.228-.25.134-.441.325-.575.575-.156.291-.218.574-.227 1.309L3.9 7.1h16.198v-.088c-.008-.735-.07-1.018-.226-1.309a1.372 1.372 0 00-.575-.575c-.291-.156-.574-.218-1.309-.227l-.193-.001z" fill="#3F8AE0" fill-rule="nonzero"/></g></svg><svg height="32" width="32" viewBox="-4 -4 32 32" id="more_horizontal_24" x="252" y="32" xmlns="http://www.w3.org/2000/svg"><g fill="none" fill-rule="evenodd"><path d="M24 0H0v24h24z" opacity=".1"/><path d="M18 10c1.1 0 2 .9 2 2s-.9 2-2 2-2-.9-2-2 .9-2 2-2zm-6 4c-1.1 0-2-.9-2-2s.9-2 2-2 2 .9 2 2-.9 2-2 2zm-6 0c-1.1 0-2-.9-2-2s.9-2 2-2 2 .9 2 2-.9 2-2 2z" fill="#3f8ae0" fill-rule="nonzero"/></g></svg><svg height="32" width="32" viewBox="-4 -4 32 32" id="more_horizontal_24_gray_300" x="252" y="64" xmlns="http://www.w3.org/2000/svg"><g fill="none" fill-rule="evenodd"><path d="M24 0H0v24h24z" opacity=".1"/><path d="M18 10c1.1 0 2 .9 2 2s-.9 2-2 2-2-.9-2-2 .9-2 2-2zm-6 4c-1.1 0-2-.9-2-2s.9-2 2-2 2 .9 2 2-.9 2-2 2zm-6 0c-1.1 0-2-.9-2-2s.9-2 2-2 2 .9 2 2-.9 2-2 2z" fill="#aaaeb3" fill-rule="nonzero"/></g></svg><svg height="36" width="36" viewBox="-4 -4 36 36" id="more_horizontal_28" x="180" y="108" xmlns="http://www.w3.org/2000/svg"><g fill="none" fill-rule="evenodd"><path d="M0 0h28v28H0z"/><path d="M6.75 12a2.25 2.25 0 110 4.5 2.25 2.25 0 010-4.5zm7 0a2.25 2.25 0 110 4.5 2.25 2.25 0 010-4.5zm7 0a2.25 2.25 0 110 4.5 2.25 2.25 0 010-4.5z" fill="#3f8ae0" fill-rule="nonzero"/></g></svg><svg width="36" height="36" viewBox="-4 -4 36 36" id="music_outline_28" y="176" xmlns="http://www.w3.org/2000/svg"><g fill="none" fill-rule="evenodd"><path opacity=".4" d="M0 0h28v28H0z"/><path d="M22.03 2.895c1.1.333 1.77 1.254 1.77 2.664v6.256h-.046l.046.025v4.017l-.001.043c0 3.543-1.17 5.494-3.892 5.987-2.009.364-4.14-1.193-3.898-3.481.254-2.412 2.147-3.37 5.991-4.074V8.198l-10.8 2.194-.2.045v6.845c0 .232 0 .296-.011.368-.001.074-.002.566.001 1.673.01 3.078-.855 4.649-2.672 5.624-2.185 1.172-5.017.106-5.313-2.58-.292-2.653 2.41-4.478 6.183-4.573-.002-.966 0-1.244.01-1.34l.002-.016V7.282c.008-1.492 1.326-2.628 3.249-2.998 4.015-.871 7.198-1.342 7.588-1.418.704-.14 1.334-.17 1.993.03zM9.189 19.594c-2.825.08-4.541 1.24-4.394 2.575.142 1.291 1.52 1.81 2.672 1.192 1.164-.625 1.69-1.527 1.722-3.767zm12.808-3.43c-2.818.548-4.07 1.222-4.198 2.43-.104.979.867 1.688 1.787 1.522 1.673-.303 2.367-1.38 2.41-3.951zM20.385 4.633c-.372.073-3.569.546-7.575 1.416-1.19.229-1.807.76-1.81 1.244v.168l-.001.061v1.072L22 6.353V5.56c0-.623-.158-.84-.49-.94-.303-.092-.689-.073-1.125.013z" fill="#3F8AE0" fill-rule="nonzero"/></g></svg><svg height="20" width="16" viewBox="-4 -4 16 20" id="online_mobile_12" x="128" y="76" xmlns="http://www.w3.org/2000/svg"><path d="M5.99 0C7.1 0 8 .9 8 2.01v7.98C8 11.1 7.1 12 5.99 12H2.01C.9 12 0 11.1 0 9.99V2.01C0 .9.9 0 2.01 0zm.007 3H2.003a.502.502 0 00-.503.502v4.996c0 .277.225.502.502.502h3.995a.502.502 0 00.503-.502V3.503A.502.502 0 005.997 3z" fill="#fff"/></svg><svg width="20" height="24" viewBox="-4 -4 20 24" id="online_mobile_composite_16" x="252" y="190" xmlns="http://www.w3.org/2000/svg"><g fill="none" fill-rule="evenodd"><path d="M0 0h12v16H0z"/><path d="M4 0h4a4 4 0 014 4v8a4 4 0 01-4 4H4a4 4 0 01-4-4V4a4 4 0 014-4zm0 3h4a2.5 2.5 0 012.5 2.5v5A2.5 2.5 0 018 13H4a2.5 2.5 0 01-2.5-2.5v-5A2.5 2.5 0 014 3z" fill="#FFF" fill-rule="nonzero"/><path d="M8 2a2 2 0 012 2v8a2 2 0 01-2 2H4a2 2 0 01-2-2V4a2 2 0 012-2h4zm0 3H4a.5.5 0 00-.5.5v5a.5.5 0 00.5.5h4a.5.5 0 00.5-.5v-5A.5.5 0 008 5z" fill="#4BB34B" fill-rule="nonzero"/></g></svg><svg height="36" width="36" viewBox="-4 -4 36 36" id="photo_outline_28" x="36" y="176" xmlns="http://www.w3.org/2000/svg"><g fill="none"><path d="M0 0h28v28H0z"/><path d="M16.112 17.259l-.734.734a.712.712 0 01-.75.166c-.73-.269-1.643-.95-2.74-2.047-1.095-1.096-1.778-2.01-2.045-2.74a.712.712 0 01.164-.75l.736-.734c1.354-1.354 1.478-3.487.284-4.903l-.862-1.024c-.984-1.17-2.756-1.288-3.96-.264a3.319 3.319 0 00-.974 1.443 3.25 3.25 0 00-.159.752c-.44 3.272 1.137 6.707 4.733 10.303s7.03 5.174 10.303 4.733a3.318 3.318 0 002.195-1.134c1.024-1.202.905-2.976-.263-3.96l-1.025-.862c-1.417-1.192-3.55-1.067-4.903.287zm-2.81-2.561c.525.523.982.92 1.35 1.191 2.124-2.123 5.428-2.317 7.652-.447l1.023.862c2.03 1.708 2.233 4.751.49 6.798-.896 1.036-2.156 1.687-3.442 1.808-3.982.536-7.987-1.303-11.984-5.3-3.997-3.998-5.837-8.004-5.31-11.896.036-.414.122-.822.257-1.22a5.33 5.33 0 011.572-2.32c2.037-1.732 5.079-1.53 6.785.5l.86 1.023c1.873 2.22 1.681 5.527-.4 7.608.227.413.624.87 1.148 1.394z" fill="#3f8ae0"/></g></svg><svg width="36" height="36" viewBox="-4 -4 36 36" id="picture_outline_28" x="72" y="176" xmlns="http://www.w3.org/2000/svg"><g fill="none" fill-rule="evenodd"><path d="M0 0h28v28H0z"/><path d="M16.308 3c2.59 0 3.818.237 5.094.92a6.452 6.452 0 012.678 2.678c.683 1.276.92 2.504.92 5.094v4.616c0 2.59-.237 3.818-.92 5.094a6.452 6.452 0 01-2.678 2.678c-1.276.683-2.504.92-5.094.92h-4.616c-2.59 0-3.818-.237-5.094-.92a6.452 6.452 0 01-2.678-2.678C3.237 20.126 3 18.898 3 16.308v-4.616c0-2.59.237-3.818.92-5.094A6.452 6.452 0 016.598 3.92C7.874 3.237 9.102 3 11.692 3h4.616zm1.671 12.442l-4.202 5.187a1 1 0 01-1.417.14l-2.299-1.916-3.098 3.099c.181.134.374.256.578.365.947.506 1.863.683 4.15.683h4.617c2.288 0 3.204-.177 4.15-.683a4.452 4.452 0 001.859-1.858c.147-.275.266-.547.361-.85l-4.699-4.167zM16.31 5h-4.617c-2.288 0-3.204.177-4.15.683a4.452 4.452 0 00-1.859 1.858C5.177 8.488 5 9.404 5 11.691v4.617c0 2.257.172 3.18.663 4.113l3.63-3.628a1 1 0 011.347-.061l2.221 1.85 4.222-5.211a1 1 0 011.44-.12l4.466 3.96c.007-.276.011-.575.011-.903v-4.616c0-2.288-.177-3.204-.683-4.15a4.452 4.452 0 00-1.858-1.859C19.512 5.177 18.596 5 16.309 5zM10.5 9a1.5 1.5 0 110 3 1.5 1.5 0 010-3z" fill="#3F8AE0" fill-rule="nonzero"/></g></svg><svg width="36" height="36" viewBox="-4 -4 36 36" id="place_outline_28" x="108" y="176" xmlns="http://www.w3.org/2000/svg"><g fill="none" fill-rule="evenodd"><path d="M0 0h28v28H0z"/><path d="M23 12.015C23 7.036 18.971 3 14 3s-9 4.036-9 9.015c0 3.548 2.18 7.83 6.48 12.915a3.3 3.3 0 005.04 0c4.3-5.085 6.48-9.367 6.48-12.915zm-8.16 11.777a1.3 1.3 0 01-1.833-.153C8.983 18.88 7 14.983 7 12.015 7 8.14 10.134 5 14 5s7 3.14 7 7.015c0 2.968-1.983 6.866-6.007 11.624a1.3 1.3 0 01-.153.153zM10 12a4 4 0 118.001.001A4 4 0 0110 12zm2 0a2 2 0 104.001-.001A2 2 0 0012 12z" fill="#3F8AE0" fill-rule="nonzero"/></g></svg><svg width="36" height="36" viewBox="-4 -4 36 36" id="poll_outline_28" x="144" y="176" xmlns="http://www.w3.org/2000/svg"><g fill="none" fill-rule="evenodd"><path d="M0 0h28v28H0z"/><path d="M10.692 5c-2.137 0-2.897.147-3.68.565a3.453 3.453 0 00-1.447 1.448C5.147 7.795 5 8.555 5 10.692v6.616c0 2.137.147 2.897.565 3.68.337.629.818 1.11 1.448 1.447.782.418 1.542.565 3.679.565h6.616c2.137 0 2.897-.147 3.68-.565a3.453 3.453 0 001.447-1.448c.418-.782.565-1.542.565-3.679v-6.616c0-2.137-.147-2.897-.565-3.68a3.453 3.453 0 00-1.448-1.447C20.205 5.147 19.445 5 17.308 5h-6.616zm0-2h6.616c2.675 0 3.645.278 4.623.801a5.452 5.452 0 012.268 2.268c.523.978.801 1.948.801 4.623v6.616c0 2.675-.278 3.645-.801 4.623a5.452 5.452 0 01-2.268 2.268c-.978.523-1.948.801-4.623.801h-6.616c-2.675 0-3.645-.278-4.623-.801a5.452 5.452 0 01-2.268-2.268C3.278 20.953 3 19.983 3 17.308v-6.616c0-2.675.278-3.645.801-4.623A5.452 5.452 0 016.07 3.801C7.047 3.278 8.017 3 10.692 3zM11 19a1 1 0 01-2 0v-6a1 1 0 012 0v6zm4 0a1 1 0 01-2 0V9a1 1 0 012 0v10zm4 0a1 1 0 01-2 0v-4a1 1 0 012 0v4z" fill="#3F8AE0" fill-rule="nonzero"/></g></svg><svg height="52" width="52" viewBox="-4 -4 52 52" id="radio_off_44" y="52" xmlns="http://www.w3.org/2000/svg"><g fill="none" fill-rule="evenodd"><path d="M0 0h44v44H0z" opacity=".1"/><path d="M10 10h24v24H10z" opacity=".1"/><path d="M22 11c6.075 0 11 4.925 11 11s-4.925 11-11 11-11-4.925-11-11 4.925-11 11-11zm0 2a9 9 0 100 18 9 9 0 000-18z" fill="#c4c8cc" fill-rule="nonzero"/></g></svg><svg height="52" width="52" viewBox="-4 -4 52 52" id="radio_on_44" x="52" y="52" xmlns="http://www.w3.org/2000/svg"><g fill="none" fill-rule="evenodd"><path d="M0 0h44v44H0z" opacity=".1"/><path d="M10 10h24v24H10z" opacity=".1"/><path d="M22 11c6.075 0 11 4.925 11 11s-4.925 11-11 11-11-4.925-11-11 4.925-11 11-11zm0 2a9 9 0 100 18 9 9 0 000-18zm0 2a7 7 0 110 14 7 7 0 010-14z" fill="#3f8ae0" fill-rule="nonzero"/></g></svg><svg height="24" width="24" viewBox="-4 -4 24 24" id="search_16" x="252" y="214" xmlns="http://www.w3.org/2000/svg"><g fill="none" fill-rule="evenodd"><path d="M0 0h16v16H0z" opacity=".1"/><path d="M14.743 13.574L10.91 9.74a5.426 5.426 0 001.05-3.232A5.532 5.532 0 006.46 1 5.436 5.436 0 001 6.468a5.532 5.532 0 005.5 5.508 5.408 5.408 0 003.242-1.061l.004-.003 3.83 3.831a.826.826 0 101.167-1.169zm-8.247-2.696a4.425 4.425 0 01-4.4-4.406 4.35 4.35 0 014.368-4.374 4.426 4.426 0 014.4 4.406 4.35 4.35 0 01-4.368 4.374z" fill="#818c99" fill-rule="nonzero"/></g></svg><svg width="24" height="24" viewBox="-4 -4 24 24" id="search_outline_16" x="104" y="76" xmlns="http://www.w3.org/2000/svg"><g fill="none" fill-rule="evenodd" opacity=".92"><path opacity=".1" d="M0 0h16v16H0z"/><path d="M6.5 1a5.5 5.5 0 014.383 8.823l3.896 3.9a.75.75 0 01-1.061 1.06l-3.895-3.9A5.5 5.5 0 116.5 1zm0 1.5a4 4 0 100 8 4 4 0 000-8z" fill="#99A2AD" fill-rule="nonzero"/></g></svg><svg width="36" height="36" viewBox="-4 -4 36 36" id="search_outline_28" x="180" y="176" xmlns="http://www.w3.org/2000/svg"><g fill="none" fill-rule="evenodd"><path d="M0 0h28v28H0z"/><path d="M13 4.5a8.5 8.5 0 016.676 13.762l4.531 4.53a1 1 0 01-1.414 1.415l-4.53-4.531A8.5 8.5 0 1113 4.5zm0 2a6.5 6.5 0 100 13 6.5 6.5 0 000-13z" fill="#3F8AE0" fill-rule="nonzero"/></g></svg><svg height="36" width="36" viewBox="-4 -4 36 36" id="send_outline_28" x="216" xmlns="http://www.w3.org/2000/svg"><g fill="none" fill-rule="evenodd"><path d="M0 0h28v28H0z"/><path d="M5.78 16.73c-.738 2.263-1.248 3.949-1.528 5.058-.652 2.587.003 3.252 1.505 2.501 1.501-.75 12.535-6.626 15.003-8 3.5-1.95 3.5-3.05 0-5-2.612-1.456-13.502-7.25-15.003-8-1.502-.749-2.158-.087-1.505 2.5.28 1.108.79 2.795 1.53 5.058a2.5 2.5 0 001.965 1.69l7.51 1.252-7.51 1.252a2.5 2.5 0 00-1.966 1.69z" fill="#3f8ae0"/></g></svg><svg width="36" height="36" viewBox="-4 -4 36 36" id="settings_outline_28" x="216" y="36" xmlns="http://www.w3.org/2000/svg"><g fill="none"><path d="M0 0h28v28H0z"/><path d="M15.148 2.04c.428.07.832.233 1.195.523.595.476.878 1.076 1.097 1.952.056.224.153.486.275.74.278.117.55.249.815.393.262-.065.513-.15.714-.244 1.412-.658 2.597-.623 3.567.423.082.089.131.148.238.28l.629.776c.17.21.241.305.348.482.692 1.152.422 2.224-.452 3.386a4.112 4.112 0 00-.417.71c.078.283.143.57.195.86.222.178.46.334.668.441.804.41 1.325.821 1.655 1.508.202.42.27.85.24 1.282a3.48 3.48 0 01-.106.64l-.225.975c-.065.285-.099.41-.185.622a2.515 2.515 0 01-.778 1.047c-.598.473-1.246.614-2.148.63-.229.004-.502.04-.773.1a9.749 9.749 0 01-.563.704c.003.275.03.544.077.764.187.884.196 1.547-.13 2.236-.2.42-.491.744-.845.993a3.48 3.48 0 01-.565.32l-.899.44a3.48 3.48 0 01-.6.247c-.414.126-.85.156-1.303.054-.744-.167-1.261-.582-1.842-1.273a4.103 4.103 0 00-.591-.561 9.627 9.627 0 01-.878 0 4.22 4.22 0 00-.591.56c-.58.692-1.098 1.107-1.842 1.274a2.515 2.515 0 01-1.303-.054 3.48 3.48 0 01-.6-.248l-.899-.438a7.152 7.152 0 01-.185-.093c-1.312-.683-1.696-1.847-1.355-3.457.047-.22.074-.49.077-.764a9.535 9.535 0 01-.563-.705 4.066 4.066 0 00-.773-.099c-.902-.016-1.55-.157-2.148-.63a2.515 2.515 0 01-.778-1.047 3.48 3.48 0 01-.185-.622l-.225-.974a3.381 3.381 0 01-.109-.681 2.509 2.509 0 01.296-1.346c.339-.629.84-1.015 1.602-1.404a4.09 4.09 0 00.668-.441 9.64 9.64 0 01.195-.86 4.112 4.112 0 00-.417-.71c-.874-1.162-1.144-2.234-.452-3.386.107-.177.179-.273.348-.482l.63-.777c.106-.131.155-.19.237-.279.97-1.046 2.155-1.08 3.567-.423.201.093.452.18.714.244.265-.144.537-.276.815-.394.122-.253.219-.515.275-.74.219-.875.502-1.475 1.097-1.95a2.505 2.505 0 011.195-.523c.18-.03.3-.038.49-.04L14.5 2c.292 0 .422.005.648.04zM14.586 4H13.5c-.5 0-.75 0-1 1a6.347 6.347 0 01-.836 1.87 7.47 7.47 0 00-1.8.872 6.35 6.35 0 01-1.952-.525c-.934-.435-1.092-.24-1.406.148l-.63.777c-.314.389-.472.583.148 1.406.35.464.721 1.15.937 1.857a7.458 7.458 0 00-.429 1.894 6.345 6.345 0 01-1.643 1.245c-.918.468-.862.712-.75 1.199l.225.974c.113.487.169.731 1.2.75.57.01 1.323.135 2.003.39.345.575.765 1.1 1.247 1.56a6.35 6.35 0 01-.072 2.032c-.213 1.008.011 1.118.46 1.337l.9.439c.449.219.674.328 1.337-.46a6.343 6.343 0 011.59-1.327 7.571 7.571 0 001.942 0 6.343 6.343 0 011.59 1.326c.663.79.888.68 1.337.46l.9-.438c.449-.219.673-.329.46-1.337a6.35 6.35 0 01-.072-2.031 7.533 7.533 0 001.247-1.56 6.348 6.348 0 012.003-.391c1.031-.019 1.087-.263 1.2-.75l.225-.974c.112-.487.168-.73-.75-1.2a6.345 6.345 0 01-1.643-1.244 7.458 7.458 0 00-.43-1.894 6.342 6.342 0 01.938-1.857c.62-.823.462-1.017.148-1.406l-.63-.777c-.314-.389-.472-.583-1.406-.148a6.35 6.35 0 01-1.952.525 7.47 7.47 0 00-1.8-.871A6.347 6.347 0 0115.5 5c-.235-.941-.47-.997-.914-1zM14 9.5a4.5 4.5 0 110 9 4.5 4.5 0 010-9zm0 2a2.5 2.5 0 100 5 2.5 2.5 0 000-5z" fill="#3F8AE0"/></g></svg><svg height="36" width="36" viewBox="-4 -4 36 36" id="smile_outline_28" x="216" y="72" xmlns="http://www.w3.org/2000/svg"><g fill="none" fill-rule="evenodd"><path d="M0 0h28v28H0z"/><path d="M14 26C7.373 26 2 20.627 2 14S7.373 2 14 2s12 5.373 12 12-5.373 12-12 12zm0-2c5.523 0 10-4.477 10-10S19.523 4 14 4 4 8.477 4 14s4.477 10 10 10zm-4.388-5.909a1 1 0 111.463-1.364 4 4 0 005.85.001 1 1 0 111.46 1.367 6 6 0 01-8.774-.003zm7.763-4.841a1.625 1.625 0 110-3.25 1.625 1.625 0 010 3.25zm-6.75 0a1.625 1.625 0 110-3.25 1.625 1.625 0 010 3.25z" fill="#3f8ae0"/></g></svg><svg height="36" width="36" viewBox="-4 -4 36 36" id="sort_down_outline_28" x="216" y="108" xmlns="http://www.w3.org/2000/svg"><g fill="none" fill-rule="evenodd"><path d="M0 0h28v28H0z"/><g fill="#3f8ae0" fill-rule="nonzero"><path d="M9 6.5c.552 0 1 .482 1 1.077v10.508l2.293-2.292a1 1 0 011.32-.083l.094.083a1 1 0 010 1.414l-4 4a1 1 0 01-1.414 0l-4-4a1 1 0 011.414-1.414L8 18.085V7.577c0-.555.39-1.012.891-1.07z"/><path d="M19.707 6.753l4 4a1 1 0 01-1.414 1.414L20 9.874V20.46a1 1 0 01-2 0V9.874l-2.293 2.293a1 1 0 01-1.414-1.414l4-4a1 1 0 011.414 0z" opacity=".4"/></g></g></svg><svg height="36" width="36" viewBox="-4 -4 36 36" id="sort_up_outline_28" x="216" y="144" xmlns="http://www.w3.org/2000/svg"><g fill="none" fill-rule="evenodd"><path d="M0 0h28v28H0z"/><g fill="#3f8ae0" fill-rule="nonzero"><path d="M9 6.5c.552 0 1 .482 1 1.077v10.508l2.293-2.292a1 1 0 011.32-.083l.094.083a1 1 0 010 1.414l-4 4a1 1 0 01-1.414 0l-4-4a1 1 0 011.414-1.414L8 18.085V7.577c0-.555.39-1.012.891-1.07z" opacity=".4"/><path d="M19.707 6.753l4 4a1 1 0 01-1.414 1.414L20 9.874V20.46a1 1 0 01-2 0V9.874l-2.293 2.293a1 1 0 01-1.414-1.414l4-4a1 1 0 011.414 0z"/></g></g></svg><svg width="36" height="36" viewBox="-4 -4 36 36" id="tag_outline_28" y="212" xmlns="http://www.w3.org/2000/svg"><g fill="none" fill-rule="evenodd"><path d="M0 0h28v28H0z"/><path d="M23.353 19.01l-4.661 4.6a4.856 4.856 0 01-6.822 0l-6.915-6.825A6.57 6.57 0 013 12.11V7.856A4.856 4.856 0 017.856 3h4.407a6.57 6.57 0 014.615 1.894l6.475 6.391a5.427 5.427 0 01.05 7.675l-.05.05zm-1.405-1.423l.032-.032a3.427 3.427 0 00-.032-4.846l-6.475-6.392A4.57 4.57 0 0012.263 5H7.856A2.856 2.856 0 005 7.856v4.254a4.57 4.57 0 001.36 3.252l6.915 6.825a2.856 2.856 0 004.012 0l4.661-4.6zM10 12a2 2 0 110-4 2 2 0 010 4z" fill="#3F8AE0" fill-rule="nonzero"/></g></svg><svg width="36" height="36" viewBox="-4 -4 36 36" id="user_add_outline_28" x="36" y="212" xmlns="http://www.w3.org/2000/svg"><g fill="none" fill-rule="evenodd"><path d="M0 0h28v28H0z"/><path d="M17.75 15c4.951 0 9.25 1.763 9.25 5.643 0 2.016-.781 2.857-2.456 2.857H10.956c-1.675 0-2.456-.84-2.456-2.857 0-3.88 4.299-5.643 9.25-5.643zm0 2c-3.946 0-7.25 1.355-7.25 3.643 0 .89-.071.863.372.858l13.672-.001c.536 0 .456.086.456-.857C25 18.355 21.696 17 17.75 17zM5 7a1 1 0 011 1v3h3a1 1 0 010 2H6v3a1 1 0 01-2 0v-3H1a1 1 0 010-2h3V8a1 1 0 011-1zm12.5-4C20.539 3 23 5.461 23 8.5S20.539 14 17.5 14A5.499 5.499 0 0112 8.5C12 5.461 14.461 3 17.5 3zm0 2A3.499 3.499 0 0014 8.5c0 1.934 1.566 3.5 3.5 3.5S21 10.434 21 8.5 19.434 5 17.5 5z" fill="#3F8AE0" fill-rule="nonzero"/></g></svg><svg width="36" height="36" viewBox="-4 -4 36 36" id="user_added_outline_28" x="72" y="212" xmlns="http://www.w3.org/2000/svg"><g fill="none" fill-rule="evenodd"><path d="M0 0h28v28H0z"/><path d="M21 8.5C21 6.566 19.434 5 17.5 5A3.499 3.499 0 0014 8.5c0 1.934 1.566 3.5 3.5 3.5S21 10.434 21 8.5zm2 0c0 3.039-2.461 5.5-5.5 5.5A5.499 5.499 0 0112 8.5C12 5.461 14.461 3 17.5 3S23 5.461 23 8.5zM10.5 20.643c0 .943-.08.857.456.857h13.588c.536 0 .456.086.456-.857C25 18.355 21.696 17 17.75 17s-7.25 1.355-7.25 3.643zm-2 0c0-3.88 4.299-5.643 9.25-5.643S27 16.763 27 20.643c0 2.016-.781 2.857-2.456 2.857H10.956c-1.675 0-2.456-.84-2.456-2.857z" fill="#3F8AE0" fill-rule="nonzero"/><path stroke="#3F8AE0" stroke-width="2" stroke-linecap="round" stroke-linejoin="round" d="M1 13l2.917 2.917 5.833-5.834"/></g></svg><svg width="36" height="36" viewBox="-4 -4 36 36" id="user_outline_28" x="108" y="212" xmlns="http://www.w3.org/2000/svg"><g fill="none" fill-rule="evenodd"><path d="M0 0h28v28H0z"/><path d="M17.5 8.5C17.5 6.566 15.934 5 14 5a3.499 3.499 0 00-3.5 3.5c0 1.934 1.566 3.5 3.5 3.5s3.5-1.566 3.5-3.5zm2 0c0 3.039-2.461 5.5-5.5 5.5a5.499 5.499 0 01-5.5-5.5C8.5 5.461 10.961 3 14 3s5.5 2.461 5.5 5.5zM7 20.643c0 .943-.08.857.456.857h13.588c.536 0 .456.086.456-.857 0-2.288-3.304-3.643-7.25-3.643S7 18.355 7 20.643zm-2 0C5 16.763 9.299 15 14.25 15s9.25 1.763 9.25 5.643c0 2.016-.781 2.857-2.456 2.857H7.456C5.78 23.5 5 22.66 5 20.643z" fill="#3F8AE0" fill-rule="nonzero"/></g></svg><svg width="36" height="36" viewBox="-4 -4 36 36" id="users_outline_28" x="144" y="212" xmlns="http://www.w3.org/2000/svg"><g fill="none" fill-rule="evenodd"><path d="M0 0h28v28H0z"/><path d="M9 15c3.997 0 7.5 1.542 7.5 4.929 0 1.774-.69 2.571-2.147 2.571H3.647c-1.458 0-2.147-.797-2.147-2.571C1.5 16.542 5.003 15 9 15zm10.5 0c3.997 0 7.5 1.542 7.5 4.929 0 1.774-.69 2.571-2.147 2.571H19a1 1 0 010-2h5.913a.83.83 0 01.042.002l.013.001.002-.015c.01-.081.024-.22.029-.427l.001-.132C25 18.095 22.513 17 19.5 17c-.428 0-.898.03-1.37.09a1 1 0 11-.256-1.983A12.87 12.87 0 0119.5 15zM3.531 20.503l-.014.002-.013.007-.001.01.037.036-.009-.055zm10.937 0l-.008.055.037-.036c.003-.008-.001-.014-.014-.017l-.015-.002zm10.5 0l-.008.055.037-.036c.003-.008-.001-.014-.014-.017l-.015-.002zM9 17c-3.013 0-5.5 1.095-5.5 2.929 0 .28.017.462.03.56l.001.014.014-.001.019-.001h10.891l.013.002.002-.015c.013-.097.03-.28.03-.56C14.5 18.096 12.013 17 9 17zM19.5 5a4.25 4.25 0 014.25 4.25 4.25 4.25 0 01-4.25 4.25 4.25 4.25 0 01-4.25-4.25A4.25 4.25 0 0119.5 5zM9 5a4.25 4.25 0 014.25 4.25A4.25 4.25 0 019 13.5a4.25 4.25 0 01-4.25-4.25A4.25 4.25 0 019 5zm10.5 2a2.25 2.25 0 100 4.5 2.25 2.25 0 100-4.5zM9 7a2.25 2.25 0 100 4.5A2.25 2.25 0 109 7z" fill="#3F8AE0" fill-rule="nonzero"/></g></svg><svg width="36" height="36" viewBox="-4 -4 36 36" id="video_outline_28" x="180" y="212" xmlns="http://www.w3.org/2000/svg"><g fill="none"><path d="M0 0h28v28H0z"/><path d="M14 2c6.627 0 12 5.373 12 12s-5.373 12-12 12S2 20.627 2 14 7.373 2 14 2zm0 2C8.477 4 4 8.477 4 14s4.477 10 10 10 10-4.477 10-10S19.523 4 14 4zm-1.545 5.121c.342 0 .678.09.975.26l5.079 2.925a1.955 1.955 0 010 3.388l-5.079 2.924a1.955 1.955 0 01-2.93-1.694v-5.848c0-1.08.875-1.955 1.955-1.955zm.045 2.033v5.692L17.443 14 12.5 11.154z" fill="#3F8AE0"/></g></svg><svg width="36" height="36" viewBox="-4 -4 36 36" id="write_outline_28" x="216" y="212" xmlns="http://www.w3.org/2000/svg"><g fill="none"><path d="M0 0h28v28H0z"/><path d="M23 10a1 1 0 01.993.883L24 11v7.302c0 1.982-.206 2.7-.594 3.424a4.038 4.038 0 01-1.68 1.68c-.724.388-1.442.594-3.424.594H9.698c-1.982 0-2.7-.206-3.424-.594a4.038 4.038 0 01-1.68-1.68C4.206 21.002 4 20.284 4 18.302V9.698c0-1.982.206-2.7.594-3.424a4.038 4.038 0 011.68-1.68C6.998 4.206 7.716 4 9.698 4H17a1 1 0 01.117 1.993L17 6v-.002L9.575 6c-1.513 0-1.974.089-2.444.34a1.87 1.87 0 00-.79.79c-.238.445-.33.88-.34 2.202L6 18.425c0 1.513.089 1.974.34 2.444.186.347.444.605.79.79.471.252.932.341 2.445.341h8.85c1.513 0 1.974-.089 2.444-.34a1.87 1.87 0 00.79-.79c.252-.471.341-.932.341-2.445V11a1 1 0 011-1zm-.632-6.137l1.738 1.797-9.613 9.613c-1.061 1.06-3.006 1.945-3.36 1.591-.353-.354.531-2.298 1.592-3.359l9.643-9.642zm3.494-1.727c.53.53.53 1.237 0 1.768l-.699.698-1.756-1.779.687-.687c.53-.53 1.237-.53 1.768 0z" fill="#3F8AE0"/></g></svg></svg>